Coordinates
version=1
nRows=16
nColumns=38
inDegrees=no

Units are S.I. units (second, meters, Newtons, ...)
If the header above contains a line with 'inDegrees', this indicates whether rotational values are in degrees (yes) or radians (no).

endheader
time	pelvis_tilt	pelvis_list	pelvis_rotation	pelvis_tx	pelvis_ty	pelvis_tz	hip_flexion_r	hip_adduction_r	hip_rotation_r	knee_angle_r	ankle_angle_r	subtalar_angle_r	mtp_angle_r	hip_flexion_l	hip_adduction_l	hip_rotation_l	knee_angle_l	ankle_angle_l	subtalar_angle_l	mtp_angle_l	lumbar_extension	lumbar_bending	lumbar_rotation	arm_flex_r	arm_add_r	arm_rot_r	elbow_flex_r	pro_sup_r	wrist_flex_r	wrist_dev_r	arm_flex_l	arm_add_l	arm_rot_l	elbow_flex_l	pro_sup_l	wrist_flex_l	wrist_dev_l
0.6	0.0325932	-0.0221084	-0.0125834	0.901978	1.02068	-0.327422	0.67373	-0.184343	-0.360846	-1.6822	0.116001	0.030798	-0.00305	-0.246509	0.0406994	-0.162544	-0.417901	0.227093	0.0409545	-0.00521385	-0.27772	0.018177	-0.157449	-0.601354	-0.179996	-0.272672	1.83955	1.54184	0.00588342	0.0429652	-0.152908	-0.253711	0.05391	2.35765	1.60821	0.0355502	0.0102162
0.61	0.0241244	-0.0382764	-0.0271338	0.905469	1.02655	-0.326639	0.692181	-0.158729	-0.375616	-1.58579	0.114258	0.030798	-0.00305	-0.302595	0.0225146	-0.20624	-0.357017	0.113166	0.0409545	-0.00521385	-0.257397	0.0392346	-0.156452	-0.626942	-0.173898	-0.287088	1.86244	1.55698	0.00588342	0.0429652	-0.148521	-0.244119	0.0761635	2.40299	1.62187	0.0355502	0.0102162
0.62	0.017098	-0.0515629	-0.0411172	0.909019	1.03245	-0.325871	0.700781	-0.133927	-0.390296	-1.47948	0.111421	0.030798	-0.00305	-0.352199	0.00799827	-0.254581	-0.308771	-0.00233943	0.0409545	-0.00521385	-0.239554	0.0577163	-0.154321	-0.65159	-0.166582	-0.301628	1.88504	1.57349	0.00588342	0.0429652	-0.145688	-0.235321	0.099395	2.44397	1.63616	0.0355502	0.0102162
0.63	0.0120538	-0.0617527	-0.0536178	0.91242	1.03817	-0.325255	0.699493	-0.110256	-0.404075	-1.36417	0.106834	0.030798	-0.00305	-0.394325	-0.00314026	-0.304356	-0.277275	-0.111281	0.0409545	-0.00521385	-0.225244	0.0735697	-0.151349	-0.674684	-0.157884	-0.316685	1.90656	1.58895	0.00588342	0.0429652	-0.143324	-0.227868	0.123511	2.47929	1.64986	0.0355502	0.0102162
0.64	0.00938223	-0.0688892	-0.063849	0.91552	1.04352	-0.324913	0.688556	-0.0878149	-0.41618	-1.24095	0.0995792	0.030798	-0.00305	-0.428532	-0.0116243	-0.352049	-0.265426	-0.206367	0.0409545	-0.00521385	-0.215156	0.0869122	-0.147924	-0.695647	-0.147815	-0.332428	1.92649	1.60142	0.00588342	0.0429652	-0.140721	-0.22217	0.148082	2.508	1.66172	0.0355502	0.0102162
0.65	0.00931036	-0.073306	-0.0712971	0.918242	1.04837	-0.324917	0.668489	-0.0664426	-0.425965	-1.11134	0.0886649	0.030798	-0.00305	-0.454927	-0.0185205	-0.394433	-0.274683	-0.282084	0.0409545	-0.00521385	-0.209645	0.098071	-0.144283	-0.714066	-0.136466	-0.348926	1.94464	1.60964	0.00588342	0.0429652	-0.137518	-0.218478	0.172475	2.52951	1.67065	0.0355502	0.0102162
0.66	0.011844	-0.0755356	-0.0757807	0.920549	1.05255	-0.32525	0.64015	-0.0458409	-0.433013	-0.977392	0.0732928	0.030798	-0.00305	-0.474009	-0.0250481	-0.429092	-0.304987	-0.335402	0.0409545	-0.00521385	-0.208656	0.107429	-0.140713	-0.729529	-0.12413	-0.365903	1.96084	1.61305	0.00588342	0.0429652	-0.133893	-0.216889	0.195712	2.54358	1.67604	0.0355502	0.0102162
0.67	0.0167533	-0.0762013	-0.0774458	0.922505	1.056	-0.325835	0.604796	-0.0257233	-0.437265	-0.841955	0.0531507	0.030798	-0.00305	-0.48644	-0.0324066	-0.454763	-0.354941	-0.365903	0.0409545	-0.00521385	-0.211718	0.115346	-0.137584	-0.741599	-0.111322	-0.382684	1.9749	1.61168	0.00588342	0.0429652	-0.130537	-0.217374	0.21653	2.55027	1.67781	0.0355502	0.0102162
0.68	0.0235967	-0.0759874	-0.0767184	0.924175	1.0586	-0.326542	0.564109	-0.00591997	-0.439103	-0.708736	0.0286551	0.030798	-0.00305	-0.492861	-0.0416587	-0.471445	-0.422204	-0.375416	0.0409545	-0.00521385	-0.218071	0.122199	-0.135124	-0.749965	-0.0986537	-0.398416	1.98666	1.60609	0.00588342	0.0429652	-0.12837	-0.219818	0.233699	2.54988	1.67643	0.0355502	0.0102162
0.69	0.0317527	-0.0755515	-0.0741972	0.925608	1.06025	-0.327226	0.520213	0.0135301	-0.439301	-0.58229	0.00104507	0.030798	-0.00305	-0.493706	-0.0536125	-0.480152	-0.503919	-0.367349	0.0409545	-0.00521385	-0.226747	0.128353	-0.133405	-0.754456	-0.0868084	-0.41216	1.99599	1.59726	0.00588342	0.0429652	-0.128343	-0.224052	0.246204	2.5429	1.6728	0.0355502	0.0102162
0.7	0.0404703	-0.0754326	-0.0705279	0.926838	1.06087	-0.327762	0.475617	0.0323475	-0.438837	-0.467797	-0.0276803	0.030798	-0.00305	-0.489094	-0.0687134	-0.482424	-0.597099	-0.345889	0.0409545	-0.00521385	-0.236663	0.13411	-0.132418	-0.754973	-0.0765553	-0.422942	2.0028	1.58644	0.00588342	0.0429652	-0.131291	-0.229877	0.253324	2.5299	1.66809	0.0355502	0.0102162
0.71	0.0489472	-0.0759777	-0.0663052	0.927863	1.06037	-0.328071	0.433049	0.0500517	-0.43859	-0.370661	-0.0549243	0.030798	-0.00305	-0.478851	-0.0869552	-0.479794	-0.698892	-0.315257	0.0409545	-0.00521385	-0.24675	0.139653	-0.132157	-0.751395	-0.0687579	-0.429779	2.00696	1.57496	0.00588342	0.0429652	-0.137844	-0.237079	0.254643	2.51155	1.66356	0.0355502	0.0102162
0.72	0.0564611	-0.0773267	-0.0620291	0.928644	1.05871	-0.328125	0.395185	0.066044	-0.439033	-0.295976	-0.0776865	0.030798	-0.00305	-0.462614	-0.107836	-0.473406	-0.806711	-0.279194	0.0409545	-0.00521385	-0.256106	0.144998	-0.132626	-0.743497	-0.0643291	-0.431751	2.00831	1.56406	0.00588342	0.0429652	-0.148363	-0.245431	0.250019	2.48858	1.66039	0.0355502	0.0102162
0.73	0.0625028	-0.0794213	-0.0581026	0.92912	1.05586	-0.327935	0.364329	0.0797345	-0.440068	-0.247933	-0.092776	0.030798	-0.00305	-0.439982	-0.130408	-0.463898	-0.918269	-0.240698	0.0409545	-0.00521385	-0.264136	0.150004	-0.133779	-0.73095	-0.0641009	-0.428117	2.00665	1.55475	0.00588342	0.0429652	-0.162891	-0.254693	0.239554	2.46171	1.6595	0.0355502	0.0102162
0.74	0.0668274	-0.082058	-0.0548536	0.929219	1.05183	-0.32754	0.342092	0.0906869	-0.441072	-0.229217	-0.0970807	0.030798	-0.00305	-0.41065	-0.153425	-0.451483	-1.03157	-0.202003	0.0409545	-0.00521385	-0.270653	0.154431	-0.135374	-0.713392	-0.0686161	-0.418484	2.00179	1.54765	0.00588342	0.0429652	-0.181118	-0.264613	0.22361	2.43168	1.66154	0.0355502	0.0102162
0.75	0.0694496	-0.0849751	-0.052558	0.928869	1.04663	-0.32699	0.329119	0.0987418	-0.441142	-0.240462	-0.0879503	0.030798	-0.00305	-0.374493	-0.17553	-0.436126	-1.14487	-0.164671	0.0409545	-0.00521385	-0.275909	0.158034	-0.13684	-0.69056	-0.077915	-0.402979	1.99366	1.54302	0.00588342	0.0429652	-0.202341	-0.274943	0.202859	2.39914	1.66689	0.0355502	0.0102162
